<?xml version="1.0" encoding="UTF-8"?>
<svg version="1.1" xmlns="http://www.w3.org/2000/svg" width="276" height="255">
<path d="M0 0 C0.97701874 -0.00860046 1.95403748 -0.01720093 2.96066284 -0.02606201 C4.56668617 -0.03245193 4.56668617 -0.03245193 6.20515442 -0.03897095 C7.33390991 -0.04714844 8.46266541 -0.05532593 9.62562561 -0.06375122 C13.36933358 -0.08860822 17.1130036 -0.10512256 20.85676575 -0.11953735 C22.7738758 -0.12752287 22.7738758 -0.12752287 24.72971535 -0.13566971 C30.10244174 -0.15690003 35.47515486 -0.17602928 40.84791088 -0.1872921 C48.53514887 -0.20351511 56.22188014 -0.23665565 63.90892714 -0.29369295 C69.97390193 -0.33715198 76.03867888 -0.35304622 82.10379982 -0.35942459 C84.67897968 -0.36614001 87.25415208 -0.38136943 89.82922935 -0.4053154 C93.43669928 -0.43694635 97.04289462 -0.43700579 100.65046692 -0.42959595 C102.24130852 -0.45420395 102.24130852 -0.45420395 103.86428833 -0.47930908 C110.5957848 -0.42281143 115.05024177 0.77770697 120.251297 5.15390015 C124.13542045 9.33680232 125.37750415 12.38331307 125.37155151 18.03236389 C125.37361776 19.53734326 125.37361776 19.53734326 125.37572575 21.07272625 C125.37212764 22.17676705 125.36852953 23.28080786 125.36482239 24.41830444 C125.36494292 25.59821614 125.36506346 26.77812784 125.36518764 27.99379444 C125.36443988 31.82192162 125.35681778 35.6500004 125.34895325 39.4781189 C125.34748341 41.83802263 125.34646296 44.19792669 125.34590149 46.55783081 C125.34065348 55.31902555 125.32669234 64.08021332 125.313797 72.84140015 C125.293172 92.41452515 125.272547 111.98765015 125.251297 132.15390015 C77.731297 132.15390015 30.211297 132.15390015 -18.748703 132.15390015 C-18.831203 112.84890015 -18.913703 93.54390015 -18.998703 73.65390015 C-19.03511902 67.56630249 -19.07153503 61.47870483 -19.10905457 55.20663452 C-19.12712097 47.75253296 -19.12712097 47.75253296 -19.13047791 44.25900269 C-19.13660593 41.82765777 -19.15064465 39.39632475 -19.17100525 36.96505737 C-19.20035697 33.27453608 -19.20432463 29.58475535 -19.20280457 25.89413452 C-19.217197 24.81745262 -19.23158943 23.74077072 -19.246418 22.6314621 C-19.20671909 15.4135171 -18.22269707 9.67271995 -12.93229675 4.3140564 C-12.35608582 3.95182983 -11.77987488 3.58960327 -11.186203 3.21640015 C-10.31801941 2.64598999 -10.31801941 2.64598999 -9.43229675 2.0640564 C-6.22699123 0.33125782 -3.56880323 0.02340566 0 0 Z M75.1341095 46.07577515 C73.8483754 47.36575409 73.8483754 47.36575409 72.53666687 48.68179321 C69.81179593 51.41782006 67.09397879 54.16073408 64.376297 56.90390015 C62.52519624 58.7650366 60.67363876 60.6257189 58.8216095 62.4859314 C54.2928675 67.03667291 49.76989015 71.59308252 45.251297 76.15390015 C42.0486898 74.63471368 40.02409076 73.10556262 37.60676575 70.4937439 C36.9293634 69.78282593 36.25196106 69.07190796 35.55403137 68.33944702 C34.14740763 66.84450342 32.74888713 65.34189243 31.35871887 63.83163452 C28.05138595 60.38662644 26.10201642 58.38867099 21.4153595 57.0953064 C17.61523757 57.16567902 16.06257859 57.58358555 13.251297 60.15390015 C11.48579729 63.37403688 11.48579729 63.37403688 11.251297 67.15390015 C13.69973979 72.19453348 16.54156689 75.82042267 20.532547 79.7984314 C21.02790955 80.29429245 21.52327209 80.7901535 22.03364563 81.30104065 C23.07216244 82.33723623 24.11432633 83.36978861 25.1599884 84.39877319 C26.75609935 85.97113103 28.33830251 87.5565615 29.91926575 89.14413452 C35.37604263 95.22147028 35.37604263 95.22147028 42.251297 99.15390015 C48.08034336 98.86488333 50.64051914 97.50898562 54.71174622 93.39047241 C55.20859421 92.89610687 55.7054422 92.40174133 56.21734619 91.89239502 C57.84498787 90.26566669 59.45028678 88.61867466 61.0559845 86.9703064 C62.18577247 85.83185806 63.31682488 84.69466327 64.44908142 83.55867004 C67.41814265 80.57241805 70.36832696 77.56815695 73.31532288 74.56015015 C75.72894718 72.10284291 78.15563663 69.6586717 80.58312798 67.21507359 C83.47421648 64.30440389 86.35977506 61.3882853 89.2434845 58.4703064 C89.79493008 57.91243502 90.34637566 57.35456364 90.91453171 56.77978706 C92.46839719 55.20498552 94.01850298 53.62659047 95.56721497 52.04672241 C96.44989044 51.14817032 97.33256592 50.24961823 98.24198914 49.32383728 C100.60442821 46.77253871 101.18025278 45.79329813 101.563797 42.34140015 C101.16775596 38.30178159 100.26288642 36.8566086 97.251297 34.15390015 C87.37891008 31.04592649 81.49215292 39.63789888 75.1341095 46.07577515 Z " fill="#1F40AF" transform="translate(84.74870300292969,42.846099853515625)"/>
<path d="M0 0 C0 15.84 0 31.68 0 48 C55.44 48 110.88 48 168 48 C168 32.16 168 16.32 168 0 C181.22343324 0 181.22343324 0 187 5 C190.73126894 9.01828963 192.11422341 12.02393208 192.16113281 17.46801758 C192.17074036 18.36937943 192.1803479 19.27074127 192.19024658 20.19941711 C192.1966214 21.65724861 192.1966214 21.65724861 192.203125 23.14453125 C192.20882507 24.14707443 192.21452515 25.14961761 192.22039795 26.18254089 C192.2298466 28.30503281 192.2363814 30.42753938 192.24023438 32.55004883 C192.24993112 35.78948726 192.28095248 39.02828884 192.3125 42.26757812 C192.31903113 44.3307254 192.32428117 46.39387721 192.328125 48.45703125 C192.3404718 49.42284622 192.3528186 50.38866119 192.36553955 51.38374329 C192.34807903 56.68292476 192.01053918 60.44033552 189 65 C183.05084376 70.69049727 178.41291291 72.30267585 170.31535339 72.26742554 C169.54901795 72.27195665 168.78268251 72.27648776 167.99312478 72.28115618 C165.42919285 72.29380088 162.86547331 72.29217977 160.30151367 72.29052734 C158.46156033 72.29651257 156.62160951 72.30331811 154.78166199 72.31088257 C149.78569905 72.32855087 144.78980463 72.33323832 139.79381347 72.33451414 C136.67150329 72.33593589 133.54921053 72.34020595 130.42690468 72.34550858 C119.53125528 72.36401198 108.63565482 72.37217884 97.73999023 72.37060547 C87.5885629 72.36940416 77.43734821 72.39050365 67.28597468 72.4220928 C58.56649024 72.44825787 49.84707524 72.45897266 41.12755185 72.45769465 C35.92157441 72.45718506 30.71578593 72.46286653 25.50984764 72.48405075 C20.6120684 72.5034368 15.7146583 72.50355502 10.81686592 72.48901749 C9.02221512 72.48692871 7.22754119 72.49163437 5.43292999 72.5037384 C2.97672141 72.51922788 0.5217798 72.50985927 -1.93440247 72.49447632 C-2.63918742 72.50476344 -3.34397236 72.51505057 -4.07011443 72.52564943 C-10.58707876 72.43588114 -15.8027201 70.1972799 -20.375 65.625 C-24.06542652 59.66354178 -24.31880071 54.09950246 -24.3359375 47.2890625 C-24.3425943 46.36209564 -24.3492511 45.43512878 -24.35610962 44.48007202 C-24.36620383 42.52514623 -24.37092764 40.5701862 -24.37060547 38.61523438 C-24.37497598 35.64134345 -24.41132246 32.66894103 -24.44921875 29.6953125 C-24.45508831 27.78906753 -24.45905677 25.88281557 -24.4609375 23.9765625 C-24.47530853 23.0961026 -24.48967957 22.2156427 -24.50448608 21.3085022 C-24.45562685 14.63126061 -22.98157742 9.02004938 -18.18359375 4.16015625 C-17.60738281 3.79792969 -17.03117187 3.43570313 -16.4375 3.0625 C-15.56931641 2.49208984 -15.56931641 2.49208984 -14.68359375 1.91015625 C-9.48189702 -0.9018979 -6.8103929 0 0 0 Z " fill="#1F41AF" transform="translate(54,139)"/>
</svg>
