<?xml version="1.0" encoding="UTF-8"?>
<svg version="1.1" xmlns="http://www.w3.org/2000/svg" width="355" height="294">
<path d="M0 0 C21.33947008 18.64741385 34.92524443 43.3718056 37.4140625 71.84375 C39.10794118 100.9857846 30.82933854 127.16847385 12.4140625 149.84375 C11.84042969 150.57078125 11.26679688 151.2978125 10.67578125 152.046875 C-5.29783482 171.41345487 -31.00843875 183.52852556 -55.5859375 186.84375 C-59.84040452 187.12947261 -64.07282496 187.17770121 -68.3359375 187.15625 C-70.04837646 187.14996582 -70.04837646 187.14996582 -71.79541016 187.14355469 C-80.41189664 187.02855402 -88.26764553 186.21893597 -96.5859375 183.84375 C-97.57722656 183.57691406 -98.56851563 183.31007812 -99.58984375 183.03515625 C-117.32337342 177.72218132 -132.35991757 167.62594376 -145.5859375 154.84375 C-146.25109375 154.204375 -146.91625 153.565 -147.6015625 152.90625 C-167.13645345 132.5772578 -175.26699987 104.99790291 -175.06079102 77.41796875 C-174.4109033 53.02107596 -165.16840494 28.8614851 -148.5859375 10.84375 C-148.11559082 10.32570801 -147.64524414 9.80766602 -147.16064453 9.27392578 C-108.5233328 -32.86563499 -43.79593652 -36.5186661 0 0 Z M-93.5859375 40.84375 C-95.97899136 44.43333079 -95.85404898 46.07863471 -95.89233398 50.34716797 C-95.90481926 51.33064209 -95.90481926 51.33064209 -95.91755676 52.33398438 C-95.94165105 54.50136251 -95.95042805 56.66843964 -95.95703125 58.8359375 C-95.96599824 60.34424937 -95.9751201 61.85256032 -95.98439026 63.36087036 C-96.00088137 66.52331707 -96.00858053 69.6856579 -96.01147461 72.84814453 C-96.01685785 76.89593388 -96.05453325 80.94272497 -96.10021877 84.99023247 C-96.12999678 88.10612601 -96.13719831 91.22177942 -96.13820076 94.33780289 C-96.14240188 95.82973934 -96.15483211 97.32167658 -96.17571831 98.81347275 C-96.20265094 100.90357074 -96.19780514 102.99135867 -96.18530273 105.08154297 C-96.19037338 106.26940399 -96.19544403 107.45726501 -96.20066833 108.68112183 C-95.40806742 112.75884469 -93.74062167 114.23779838 -90.5859375 116.84375 C-86.86415844 118.4956949 -82.51515744 118.00576434 -78.49609375 118.01171875 C-77.71455429 118.01504715 -76.93301483 118.01837555 -76.12779236 118.02180481 C-74.47786038 118.02685822 -72.82791822 118.02921363 -71.17797852 118.02905273 C-68.66079808 118.03123926 -66.1440561 118.04941159 -63.62695312 118.06835938 C-62.02083483 118.07129367 -60.41471445 118.07327822 -58.80859375 118.07421875 C-58.05949234 118.08140427 -57.31039093 118.08858978 -56.53858948 118.09599304 C-51.57874107 118.07442342 -47.73024663 117.60514679 -43.8359375 114.40625 C-41.19391915 111.10372706 -41.43913001 107.67889423 -41.39306641 103.6315918 C-41.37700348 102.34983566 -41.36094055 101.06807953 -41.34439087 99.7474823 C-41.33290362 98.34598455 -41.32229504 96.94447935 -41.3125 95.54296875 C-41.30451448 94.4826541 -41.30451448 94.4826541 -41.29636765 93.40091896 C-41.26966517 89.65929882 -41.25028113 85.9177117 -41.23583984 82.17602539 C-41.22250202 79.08457846 -41.19464999 75.99379185 -41.15380859 72.90258789 C-41.10442339 69.1643059 -41.07971215 65.42662259 -41.07261276 61.68802834 C-41.06591187 60.26667555 -41.05071976 58.84533552 -41.02672195 57.42416954 C-40.56252591 48.69651169 -40.56252591 48.69651169 -43.93115234 40.98754883 C-48.38024293 37.39480794 -52.50768477 37.66981152 -57.98046875 37.640625 C-58.80544357 37.63492493 -59.6304184 37.62922485 -60.48039246 37.62335205 C-62.22625448 37.61390877 -63.97213427 37.60737074 -65.71801758 37.60351562 C-68.37808668 37.59382414 -71.03737828 37.56280088 -73.69726562 37.53125 C-75.39582876 37.52471811 -77.0943974 37.51946837 -78.79296875 37.515625 C-79.58379349 37.5032782 -80.37461823 37.4909314 -81.18940735 37.47821045 C-86.04750651 37.49763307 -89.39097359 38.12849608 -93.5859375 40.84375 Z " fill="#1F40AF" transform="translate(249.5859375,61.15625)"/>
<path d="M0 0 C11.55 0 23.1 0 35 0 C35 16.5 35 33 35 50 C23.45 50 11.9 50 0 50 C0 33.5 0 17 0 0 Z " fill="#2243B0" transform="translate(163,109)"/>
<path d="M0 0 C3.625 0.375 3.625 0.375 7 1 C7.33 2.98 7.66 4.96 8 7 C6.25 8.5625 6.25 8.5625 4 10 C0.99611368 9.73495121 0.16695725 9.16695725 -2 7 C-2.25 4.5 -2.25 4.5 -2 2 C-1.34 1.34 -0.68 0.68 0 0 Z " fill="#2D4DB4" transform="translate(178,164)"/>
</svg>
