<?xml version="1.0" encoding="UTF-8"?>
<svg version="1.1" xmlns="http://www.w3.org/2000/svg" width="306" height="261">
<path d="M0 0 C0.98613281 0.54398438 1.97226563 1.08796875 2.98828125 1.6484375 C25.97261012 15.28602771 42.40259604 39.36067716 49 65 C55.35893262 92.52590597 51.92122145 120.24888549 37.91015625 144.9453125 C34.60202301 150.23561964 30.92976461 155.15773073 27 160 C25.95199219 161.29744141 25.95199219 161.29744141 24.8828125 162.62109375 C9.23873738 180.98712333 -15.78395113 194.92514522 -40 197 C-55.69027147 197.88002891 -70.99324675 198.01317303 -86 193 C-87.13953125 192.62617188 -88.2790625 192.25234375 -89.453125 191.8671875 C-116.08719208 182.33698814 -138.20632638 163.04187992 -150.375 137.4375 C-162.64701072 110.59981358 -163.64284923 81.04601294 -153.75 53.3125 C-148.78337923 41.30478576 -142.84173419 30.6111889 -134 21 C-133.55140625 20.50902832 -133.1028125 20.01805664 -132.640625 19.51220703 C-97.9737806 -18.02369969 -44.08633712 -24.62964853 0 0 Z M-92.10046387 54.64663696 C-94.43026772 57.53306495 -94.50572496 58.92024224 -94.51757812 62.59130859 C-94.53018677 63.71282318 -94.54279541 64.83433777 -94.55578613 65.98983765 C-94.54768921 67.1971756 -94.53959229 68.40451355 -94.53125 69.6484375 C-94.5350769 70.89372223 -94.53890381 72.13900696 -94.54284668 73.42202759 C-94.54556953 76.05698186 -94.54019797 78.69045298 -94.52148438 81.32519531 C-94.50325774 84.02184278 -94.50319593 86.7174155 -94.52148438 89.4140625 C-94.54623113 93.30501401 -94.54318913 97.19494274 -94.53125 101.0859375 C-94.53934692 102.28922699 -94.54744385 103.49251648 -94.55578613 104.73226929 C-94.51102403 113.1313074 -94.51102403 113.1313074 -90 120 C-85.60958862 122.61596705 -82.39387992 123.3750979 -77.30786133 123.37231445 C-75.99662796 123.37854324 -74.68539459 123.38477203 -73.33442688 123.39118958 C-71.91695776 123.38250344 -70.49949238 123.37318568 -69.08203125 123.36328125 C-67.61805726 123.36276214 -66.15408256 123.36328182 -64.69010925 123.36479187 C-61.63127148 123.36470242 -58.57269877 123.35432511 -55.51391602 123.33618164 C-51.59300351 123.31343486 -47.67247581 123.31296408 -43.75151539 123.31969929 C-40.73264645 123.32303888 -37.71386533 123.3164104 -34.69501305 123.30657005 C-33.24892321 123.30272211 -31.8028236 123.30156816 -30.35672951 123.3031559 C-28.3391157 123.30352649 -26.32151483 123.2894314 -24.30395508 123.2746582 C-23.15623123 123.27005081 -22.00850739 123.26544342 -20.82600403 123.26069641 C-17.7951757 123.20717303 -17.7951757 123.20717303 -15 121 C-14.58333333 118 -14.58333333 118 -15 115 C-17.76421247 112.23578753 -19.41284293 112.72532879 -23.28564453 112.68115234 C-23.92967224 112.67110672 -24.57369995 112.6610611 -25.23724365 112.65071106 C-27.36909073 112.61978417 -29.50081171 112.60281806 -31.6328125 112.5859375 C-33.10970146 112.56723344 -34.58657965 112.5476606 -36.06344604 112.5272522 C-39.95304017 112.47584424 -43.84266898 112.43626515 -47.73242188 112.39910889 C-51.70060872 112.35912333 -55.66865022 112.30800622 -59.63671875 112.2578125 C-67.42437959 112.16095074 -75.21211052 112.07657905 -83 112 C-83.01213028 110.97642647 -83.01213028 110.97642647 -83.02450562 109.93217468 C-83.1104228 102.8433436 -83.20992069 95.75479631 -83.31738281 88.66625977 C-83.35571579 86.01917275 -83.39056094 83.37203287 -83.421875 80.72485352 C-83.46743145 76.92444944 -83.52544197 73.12441068 -83.5859375 69.32421875 C-83.59748871 68.13664474 -83.60903992 66.94907074 -83.62094116 65.72550964 C-83.64081085 64.62459488 -83.66068054 63.52368011 -83.68115234 62.3894043 C-83.69447601 61.41899704 -83.70779968 60.44858978 -83.7215271 59.44877625 C-83.84005053 56.74469598 -83.84005053 56.74469598 -86 54 C-88.85788513 52.57105744 -89.55103617 52.64803944 -92.10046387 54.64663696 Z M-27.88671875 64.08203125 C-28.48097656 64.65308594 -29.07523438 65.22414063 -29.6875 65.8125 C-30.69876953 66.76769531 -30.69876953 66.76769531 -31.73046875 67.7421875 C-32.47941406 68.48726563 -33.22835937 69.23234375 -34 70 C-34.90363281 70.88945313 -35.80726563 71.77890625 -36.73828125 72.6953125 C-39.17503728 75.11483546 -41.59415748 77.54978743 -44 80 C-45.1055189 79.06409496 -46.20935453 78.12620142 -47.3125 77.1875 C-48.23482422 76.40439453 -48.23482422 76.40439453 -49.17578125 75.60546875 C-51 74 -51 74 -52.29296875 72.23828125 C-54.07273115 70.71509897 -54.07273115 70.71509897 -57.1328125 70.80078125 C-62.64059607 71.87423407 -66.13403516 76.30786146 -69.875 80.1875 C-71.03128906 81.32155273 -71.03128906 81.32155273 -72.2109375 82.47851562 C-76.55408106 86.88009462 -76.55408106 86.88009462 -79.078125 92.4296875 C-79.20386241 95.00259874 -79.20386241 95.00259874 -77.875 96.9375 C-76.04138552 98.18391678 -76.04138552 98.18391678 -73.80859375 97.9765625 C-69.60819622 96.51606266 -67.19849556 93.62304602 -64.1875 90.4375 C-63.2912793 89.51420898 -63.2912793 89.51420898 -62.37695312 88.57226562 C-60.9087379 87.05706751 -59.45310447 85.52969562 -58 84 C-53.9040571 85.79710635 -51.23976953 88.51959246 -48.09765625 91.63671875 C-46.09266641 93.23494875 -46.09266641 93.23494875 -43.6887207 92.86303711 C-38.62335286 91.2371336 -35.28591775 87.02961201 -31.59570312 83.33691406 C-30.12871677 81.87869456 -28.63275086 80.45545377 -27.1328125 79.03125 C-25.740625 77.65066406 -25.740625 77.65066406 -24.3203125 76.2421875 C-23.46711426 75.4054248 -22.61391602 74.56866211 -21.73486328 73.70654297 C-19.62298348 70.99679476 -19.62298348 70.99679476 -20.22998047 67.17236328 C-20.48408691 66.1254834 -20.73819336 65.07860352 -21 64 C-24.54015788 62.88167011 -24.54015788 62.88167011 -27.88671875 64.08203125 Z " fill="#1E40AF" transform="translate(206,37)"/>
</svg>
