<?xml version="1.0" encoding="UTF-8"?>
<svg version="1.1" xmlns="http://www.w3.org/2000/svg" width="350" height="277">
<path d="M0 0 C20.89308125 18.55576815 35.16838596 43.54770097 37.20678711 71.87353516 C37.30250839 74.8147891 37.32926366 77.74475857 37.3125 80.6875 C37.30686035 81.73550781 37.3012207 82.78351563 37.29541016 83.86328125 C36.91951488 108.09922233 28.07631995 131.74540005 12 150 C11.32453125 150.81855469 10.6490625 151.63710937 9.953125 152.48046875 C-6.41484877 171.74569335 -31.75394022 184.88955 -57 187 C-86.88424873 188.72135799 -115.0573446 182.03385445 -138 162 C-138.66 161.48308594 -139.32 160.96617187 -140 160.43359375 C-160.2155795 144.17146428 -172.04456324 117.25427715 -175 92 C-177.1907199 64.3503828 -169.97570918 37.06987919 -152.625 15.1875 C-151.10787118 13.43676484 -149.56551785 11.7076028 -148 10 C-147.15695313 9.07574219 -146.31390625 8.15148438 -145.4453125 7.19921875 C-107.12825976 -32.95038869 -42.12223214 -35.99634767 0 0 Z M-88.81640625 47.1640625 C-93.28376604 54.09363049 -93.35542006 59.98330299 -93 68 C-94.5778125 68.0928125 -94.5778125 68.0928125 -96.1875 68.1875 C-100.82416331 69.17564136 -102.11977272 70.27663775 -105 74 C-105.48726765 76.99938217 -105.6805345 79.41624266 -105.62890625 82.40625 C-105.63131821 83.20857056 -105.63373016 84.01089111 -105.63621521 84.83752441 C-105.63523862 86.52861489 -105.62188958 88.21973807 -105.59692383 89.91064453 C-105.56260209 92.49232073 -105.57627468 95.0705734 -105.59570312 97.65234375 C-105.58880429 99.29949367 -105.57913155 100.94663479 -105.56640625 102.59375 C-105.57384605 103.7455072 -105.57384605 103.7455072 -105.58143616 104.92053223 C-105.4727163 109.89267674 -104.57071934 112.51897626 -101 116 C-98.41465996 117.29267002 -96.51501472 117.14830288 -93.61987305 117.17700195 C-92.49497971 117.18983719 -91.37008636 117.20267242 -90.21110535 117.21589661 C-88.99030777 117.22328354 -87.76951019 117.23067047 -86.51171875 117.23828125 C-84.6359893 117.25038887 -84.6359893 117.25038887 -82.72236633 117.26274109 C-80.07179042 117.27659195 -77.42133931 117.28760536 -74.77075195 117.29516602 C-71.38109251 117.30622212 -67.99209108 117.3406122 -64.60266399 117.38033772 C-61.3640809 117.41282306 -58.12543995 117.41728463 -54.88671875 117.42578125 C-53.67199387 117.44328934 -52.45726898 117.46079742 -51.20573425 117.47883606 C-49.50420952 117.47444771 -49.50420952 117.47444771 -47.76831055 117.4699707 C-46.27511543 117.47877007 -46.27511543 117.47877007 -44.75175476 117.48774719 C-41.23697698 116.86475454 -39.55894769 115.43535273 -37 113 C-35.43693173 109.87386345 -35.81603522 106.53839377 -35.796875 103.10546875 C-35.79117493 102.3210994 -35.78547485 101.53673004 -35.77960205 100.72859192 C-35.7701486 99.06671499 -35.7636167 97.40481928 -35.75976562 95.74291992 C-35.75007771 93.20783462 -35.71906596 90.67356621 -35.6875 88.13867188 C-35.68096803 86.52344231 -35.67571832 84.90820695 -35.671875 83.29296875 C-35.6533548 82.15990547 -35.6533548 82.15990547 -35.63446045 81.00395203 C-35.65347596 76.48046221 -36.21360792 73.60143306 -39 70 C-42.03685257 67.8742032 -44.37343631 67.93417129 -48 68 C-47.96519531 67.38253906 -47.93039063 66.76507813 -47.89453125 66.12890625 C-47.63811265 58.10666732 -48.66746769 50.48922158 -54.359375 44.3515625 C-59.3089194 40.27408069 -65.3920221 37.08304016 -71.9296875 37.5859375 C-78.92070152 38.9841403 -84.49112656 41.35617985 -88.81640625 47.1640625 Z " fill="#1F41AF" transform="translate(244,55)"/>
<path d="M0 0 C4.56951925 1.91282201 6.86027954 4.56206127 9 9 C9 12.63 9 16.26 9 20 C0.75 20 -7.5 20 -16 20 C-16 7.32432432 -16 7.32432432 -12 3 C-8.06991695 -0.18655382 -4.99020009 -0.5346643 0 0 Z " fill="#2244B0" transform="translate(177,103)"/>
</svg>
