<?xml version="1.0" encoding="UTF-8"?>
<svg version="1.1" xmlns="http://www.w3.org/2000/svg" width="1152" height="896">
<path d="M0 0 C1.01993042 0.29888626 2.03986084 0.59777252 3.09069824 0.90571594 C5.24698296 1.53943988 7.40195163 2.17765683 9.55566406 2.82006836 C12.8026473 3.78852185 16.05316591 4.74417385 19.3046875 5.69726562 C29.11136215 8.58407181 38.8577401 11.57043708 48.53710938 14.85913086 C56.89739161 17.65470869 65.39122451 20.05268397 73.84375 22.55078125 C75.92764828 23.16868682 78.01146821 23.78685667 80.09521484 24.40527344 C84.40140711 25.68309468 88.70792879 26.9597973 93.01464844 28.23583984 C98.92057575 29.98663057 104.82406574 31.74549519 110.7265625 33.5078125 C131.57718612 39.73199972 152.4390275 45.91717673 173.31130981 52.06829834 C234.04753203 69.96755326 234.04753203 69.96755326 263.93969727 79.24194336 C272.42136067 81.86016324 280.94055688 84.33959495 289.46875 86.80078125 C316.00420547 94.46028925 316.00420547 94.46028925 324.54321289 97.68017578 C325.25691544 97.94895538 325.97061798 98.21773499 326.70594788 98.49465942 C327.24642258 98.69880463 327.78689728 98.90294983 328.34375 99.11328125 C327.86376626 119.47916014 326.82701814 139.73224499 325.19710159 160.04152679 C325.02757022 162.15924767 324.86029444 164.27713673 324.693573 166.39508057 C320.80972993 215.66078864 314.93238109 264.43416905 306.34375 313.11328125 C306.05298584 314.78390625 306.05298584 314.78390625 305.75634766 316.48828125 C299.72602276 350.79412953 291.16310519 384.7097865 281.34375 418.11328125 C281.15210266 418.76729919 280.96045532 419.42131714 280.76300049 420.09515381 C263.72847115 478.12032785 239.25415908 534.31497474 206.34375 585.11328125 C205.6012348 586.27583243 204.85898937 587.43855603 204.1171875 588.6015625 C195.40167701 602.00861375 185.69575994 614.92810288 175.34375 627.11328125 C174.44777424 628.18347452 173.55194976 629.25379446 172.65625 630.32421875 C159.02989242 646.50868435 144.50450757 662.41916563 128.34375 676.11328125 C127.32965881 677.00138345 126.3167421 677.89082765 125.3046875 678.78125 C102.45991025 698.78032246 76.71106666 717.14724051 49.24707031 730.19091797 C47.39176994 731.09001043 45.56581382 732.03068425 43.7421875 732.9921875 C31.02459828 739.65491065 17.69558444 744.87084319 4.34375 750.11328125 C3.12123535 750.59667969 3.12123535 750.59667969 1.87402344 751.08984375 C-9.79545813 755.66569177 -16.40814028 755.63520236 -28.03125 751.05078125 C-29.09690186 750.63884521 -30.16255371 750.22690918 -31.26049805 749.80249023 C-34.39713187 748.58443273 -37.52671109 747.34942592 -40.65625 746.11328125 C-42.21721969 745.51112677 -43.77839173 744.90949638 -45.33984375 744.30859375 C-55.35465337 740.38914876 -64.76616964 735.54502018 -74.21386719 730.42480469 C-76.69613397 729.09186415 -79.19232905 727.78967275 -81.6953125 726.49609375 C-90.27889478 722.05625196 -98.62674455 717.51200153 -106.65625 712.11328125 C-107.56890625 711.52417969 -108.4815625 710.93507813 -109.421875 710.328125 C-118.13601051 704.65461699 -126.40149081 698.42885298 -134.65625 692.11328125 C-135.58171631 691.41066162 -135.58171631 691.41066162 -136.52587891 690.69384766 C-143.87978947 685.10137661 -150.86707688 679.27102482 -157.57104492 672.90820312 C-160.37755809 670.18986017 -160.37755809 670.18986017 -163.65625 668.11328125 C-163.65625 667.45328125 -163.65625 666.79328125 -163.65625 666.11328125 C-164.25010498 665.84467285 -164.84395996 665.57606445 -165.45581055 665.29931641 C-167.66612445 664.10795893 -169.10272183 662.91116227 -170.86328125 661.13671875 C-171.73774902 660.26043823 -171.73774902 660.26043823 -172.62988281 659.36645508 C-173.23670898 658.74665771 -173.84353516 658.12686035 -174.46875 657.48828125 C-175.41186035 656.53441528 -175.41186035 656.53441528 -176.37402344 655.5612793 C-180.01810757 651.85330538 -183.57183915 648.09972316 -186.92578125 644.125 C-190.07642037 640.46229313 -193.41630069 636.9631823 -196.71484375 633.43359375 C-198.65625 631.11328125 -198.65625 631.11328125 -198.65625 629.11328125 C-199.31625 629.11328125 -199.97625 629.11328125 -200.65625 629.11328125 C-202.20208153 627.31494338 -203.62174703 625.51510916 -205.03125 623.61328125 C-205.47041748 623.0301416 -205.90958496 622.44700195 -206.36206055 621.84619141 C-207.30920359 620.58721052 -208.25368526 619.32622402 -209.19580078 618.06347656 C-210.62770804 616.15139445 -212.07504201 614.25209099 -213.52734375 612.35546875 C-234.03011536 585.47687706 -251.72420039 556.89733743 -266.49707031 526.48925781 C-267.86856432 523.6780995 -269.25965566 520.87687569 -270.6484375 518.07421875 C-282.31298887 494.37434307 -292.03230395 470.0690091 -300.65625 445.11328125 C-301.26533203 443.35975342 -301.26533203 443.35975342 -301.88671875 441.57080078 C-308.21067312 423.27754662 -313.83208556 404.86390385 -318.65625 386.11328125 C-318.96979431 384.8990448 -318.96979431 384.8990448 -319.28967285 383.66027832 C-333.86561357 327.11095288 -343.54305444 269.43742646 -349.09375 211.30078125 C-349.19852661 210.21186584 -349.30330322 209.12295044 -349.41125488 208.0010376 C-351.17792814 189.51551357 -352.6260558 171.01347107 -353.90625 152.48828125 C-353.98906219 151.30213226 -354.07187439 150.11598328 -354.15719604 148.89389038 C-355.30503285 132.309011 -356.11134324 115.72878187 -356.65625 99.11328125 C-346.9423593 95.81690054 -337.19447191 92.71439046 -327.3515625 89.8203125 C-326.02807325 89.42902263 -324.70466009 89.03747531 -323.38131714 88.64569092 C-320.60780597 87.82500904 -317.83387556 87.00576809 -315.05957031 86.18777466 C-308.55594314 84.27002261 -302.05471272 82.34417067 -295.55336761 80.41869926 C-294.12928604 79.99696562 -292.70517824 79.57532051 -291.28104401 79.15376472 C-279.49127267 75.66382641 -267.71566086 72.13037829 -255.95361328 68.5480957 C-244.01138728 64.91112341 -232.05375007 61.32633086 -220.09375 57.74829102 C-218.55205113 57.28672864 -217.01038523 56.82505615 -215.46875 56.36328125 C-214.66688263 56.1231279 -213.86501526 55.88297455 -213.03884888 55.63554382 C-207.78398847 54.05906081 -202.53320407 52.4694703 -197.28466797 50.87207031 C-182.94973705 46.51082376 -168.60462103 42.18982001 -154.2265625 37.97265625 C-153.50774651 37.76179886 -152.78893051 37.55094147 -152.04833221 37.33369446 C-146.21948659 35.6244692 -140.38970195 33.91845605 -134.55957031 32.21362305 C-129.44791593 30.71885308 -124.33675681 29.22241083 -119.2265625 27.72265625 C-118.18032589 27.41561516 -118.18032589 27.41561516 -117.11295319 27.10237122 C-108.3466497 24.52678175 -99.60611358 21.88561903 -90.90490723 19.09751892 C-85.46537119 17.35610441 -80.00019281 15.72376825 -74.51599121 14.12928772 C-68.09493174 12.25675391 -61.70010266 10.3018387 -55.3046875 8.34375 C-52.00204973 7.33744337 -48.69907608 6.33224668 -45.39599609 5.32739258 C-43.13395219 4.63722463 -40.87289625 3.94381107 -38.61279297 3.24731445 C-35.30443957 2.22875616 -31.99251945 1.22263131 -28.6796875 0.21875 C-27.67545746 -0.09367142 -26.67122742 -0.40609283 -25.63656616 -0.72798157 C-16.10769106 -3.59149484 -9.41243433 -2.8287995 0 0 Z " fill="#FCFDFC" transform="translate(586.65625,70.88671875)"/>
<path d="M0 0 C1.84119255 0.55368937 3.6827499 1.10616704 5.5246582 1.6574707 C10.89799826 3.27130511 16.26258714 4.91277156 21.625 6.5625 C22.71751068 6.89785767 22.71751068 6.89785767 23.83209229 7.23999023 C30.47264655 9.27873434 37.10573791 11.34079864 43.734375 13.41796875 C54.74622847 16.86035347 65.80795877 20.1380877 76.86328125 23.4375 C80.60829309 24.55750354 84.35132248 25.68389359 88.09375 26.8125 C100.83491932 30.65242999 113.58969919 34.43528232 126.375 38.125 C135.4198993 40.73637731 144.44622944 43.39618019 153.4375 46.1875 C165.97615753 50.08005034 178.5484413 53.85702616 191.125 57.625 C192.19374359 57.94524139 193.26248718 58.26548279 194.36361694 58.59542847 C199.89036559 60.25132026 205.41730653 61.90656904 210.94433594 63.56152344 C220.66241061 66.47174333 230.3787499 69.38774585 240.09518433 72.30343628 C243.25486603 73.25145999 246.41464833 74.19914772 249.57446289 75.14672852 C259.00535806 77.9750625 268.43563393 80.8053885 277.86328125 83.64453125 C281.09622295 84.61762408 284.32930373 85.59025334 287.5625 86.5625 C288.73273209 86.91444427 288.73273209 86.91444427 289.92660522 87.27349854 C300.31584772 90.39569595 310.71634339 93.47829601 321.125 96.53515625 C322.28133438 96.87477386 323.43766876 97.21439148 324.62904358 97.56430054 C330.33048742 99.23802451 336.0327423 100.90892663 341.73608398 102.57617188 C343.82275642 103.18749143 345.90942645 103.79881916 347.99609375 104.41015625 C349.40912781 104.82189842 349.40912781 104.82189842 350.85070801 105.24195862 C367.05692291 109.99442291 367.05692291 109.99442291 368.625 111.5625 C369.11296762 120.38800757 368.41212156 129.30841164 367.92578125 138.12109375 C367.84990117 139.52826407 367.77412378 140.93543993 367.69844055 142.34262085 C367.4515327 146.89546522 367.19542732 151.44776829 366.9375 156 C366.89338737 156.78175472 366.84927475 157.56350945 366.80382538 158.3689537 C363.02436338 225.21769369 356.58361024 291.4837562 345.625 357.5625 C345.47200439 358.48921509 345.31900879 359.41593018 345.16137695 360.37072754 C337.17631627 408.52233869 325.74643303 456.15529921 310.625 502.5625 C310.18279731 503.93175644 309.74073411 505.30105793 309.29882812 506.67041016 C298.73556277 539.25234892 285.61183909 571.83482248 269.82128906 602.23925781 C268.39927208 605.00087283 267.0094364 607.77794835 265.6171875 610.5546875 C251.58819332 638.31831842 235.30984407 664.68558551 216.625 689.5625 C216.2021875 690.12710938 215.779375 690.69171875 215.34375 691.2734375 C206.36885484 703.22126669 196.71372878 714.54147945 186.625 725.5625 C186.17543945 726.05717773 185.72587891 726.55185547 185.26269531 727.06152344 C176.18964556 737.04372103 167.00745984 747.02261829 156.70703125 755.76171875 C153.0275114 758.94419277 149.499413 762.29964328 145.9453125 765.62109375 C143.625 767.5625 143.625 767.5625 141.625 767.5625 C141.625 768.2225 141.625 768.8825 141.625 769.5625 C139.72604485 771.23531531 137.82099878 772.77951923 135.8125 774.3125 C135.19157471 774.79203125 134.57064941 775.2715625 133.9309082 775.765625 C131.83635706 777.37456863 129.73209103 778.97001823 127.625 780.5625 C126.50931641 781.40844727 126.50931641 781.40844727 125.37109375 782.27148438 C104.34642881 798.15560095 82.28863104 812.10574861 58.56347656 823.61083984 C56.6112927 824.56922935 54.67552809 825.55497976 52.7421875 826.55078125 C37.68905585 834.28508668 22.11940224 840.47040271 6.25 846.3125 C5.62019226 846.545065 4.99038452 846.77763 4.3414917 847.01724243 C-24.1035921 857.49151666 -24.1035921 857.49151666 -41.625 851.25 C-42.25594574 851.02830139 -42.88689148 850.80660278 -43.53695679 850.57818604 C-62.31647548 843.97945893 -80.93254933 836.79287807 -98.56103516 827.50537109 C-100.44864216 826.52422194 -102.35115315 825.58013461 -104.26171875 824.64453125 C-140.60741282 806.84447201 -173.77823481 784.12715477 -203.23852539 756.35766602 C-206.07509488 753.6430712 -206.07509488 753.6430712 -209.375 751.5625 C-209.375 750.9025 -209.375 750.2425 -209.375 749.5625 C-209.95475586 749.30726563 -210.53451172 749.05203125 -211.13183594 748.7890625 C-213.60515312 747.43665223 -215.27102109 745.92517476 -217.265625 743.9375 C-217.97460938 743.23109375 -218.68359375 742.5246875 -219.4140625 741.796875 C-220.14367187 741.05953125 -220.87328125 740.3221875 -221.625 739.5625 C-222.37007812 738.82515625 -223.11515625 738.0878125 -223.8828125 737.328125 C-224.58664062 736.62171875 -225.29046875 735.9153125 -226.015625 735.1875 C-226.66047852 734.54039062 -227.30533203 733.89328125 -227.96972656 733.2265625 C-229.375 731.5625 -229.375 731.5625 -229.375 729.5625 C-230.035 729.5625 -230.695 729.5625 -231.375 729.5625 C-232.78515625 728.1640625 -232.78515625 728.1640625 -234.4375 726.1875 C-237.15423786 722.98703655 -239.91835219 719.84943937 -242.75 716.75 C-247.47723494 711.4983995 -251.9766186 706.09103209 -256.375 700.5625 C-256.89755371 699.90717285 -257.42010742 699.2518457 -257.95849609 698.57666016 C-266.21295977 688.1907954 -274.05476512 677.62657641 -281.375 666.5625 C-281.89980957 665.77053223 -282.42461914 664.97856445 -282.96533203 664.16259766 C-307.45410935 627.09519977 -327.96272635 587.83917796 -344.375 546.5625 C-344.84744141 545.38187988 -345.31988281 544.20125977 -345.80664062 542.98486328 C-367.50010087 488.42505225 -382.42728262 431.17675461 -393.375 373.5625 C-393.52797546 372.75872925 -393.68095093 371.9549585 -393.83856201 371.12683105 C-403.39454323 320.70308246 -409.19148352 269.66647384 -413.22003174 218.52514648 C-413.3660285 216.67612247 -413.51471343 214.82731127 -413.66357422 212.97851562 C-416.36650997 178.94009865 -417.87964035 144.70882462 -417.375 110.5625 C-401.92941759 105.81810833 -386.44714912 101.2102976 -370.93661499 96.68310547 C-364.6077306 94.83530892 -358.28042483 92.98211976 -351.953125 91.12890625 C-350.98450311 90.84524389 -350.98450311 90.84524389 -349.9963131 90.55585098 C-336.97825178 86.74316319 -323.96505827 82.91410414 -310.95730591 79.06637573 C-308.7481052 78.4130945 -306.53870391 77.76049112 -304.32907104 77.1086731 C-291.05911738 73.19328863 -277.82744867 69.16878828 -264.61846924 65.05238342 C-251.70346734 61.03169639 -238.75951279 57.10923712 -225.80883789 53.20532227 C-223.14237496 52.40145613 -220.47637333 51.59608804 -217.81079102 50.78930664 C-203.97617319 46.60220862 -190.13257251 42.4670885 -176.22265625 38.53515625 C-165.82766531 35.59294573 -155.50178523 32.46859339 -145.19241333 29.24017334 C-134.51195444 25.90036187 -123.8051587 22.65188987 -113.08984375 19.42578125 C-112.20594593 19.15960873 -111.32204811 18.8934362 -110.41136551 18.61919785 C-104.96595945 16.97976203 -99.51998911 15.34220738 -94.07385254 13.7052002 C-89.45584689 12.31679754 -84.8383028 10.92686151 -80.22070312 9.53710938 C-74.99782484 7.96540337 -69.7748872 6.39389498 -64.55174255 4.82307434 C-63.76281711 4.58577921 -62.97389166 4.34848408 -62.16105938 4.10399818 C-60.60313783 3.63578781 -59.04504089 3.1681606 -57.48676014 2.70114708 C-53.2986568 1.44544014 -49.11448535 0.17804431 -44.93426514 -1.10368347 C-44.03126206 -1.37888227 -43.12825899 -1.65408106 -42.19789219 -1.93761921 C-40.46461942 -2.4659764 -38.7323702 -2.99770748 -37.00134945 -3.53339672 C-23.54966572 -7.6201033 -13.04556587 -4.00777384 0 0 Z M-34.36328125 16.87109375 C-35.16408112 17.11261169 -35.96488098 17.35412964 -36.78994751 17.60296631 C-39.42362598 18.3981931 -42.05552803 19.19914514 -44.6875 20 C-46.53510814 20.55877793 -48.38284711 21.11712347 -50.23071289 21.67504883 C-53.93011237 22.792503 -57.62891036 23.91191132 -61.32714844 25.03320312 C-67.65212171 26.95043215 -73.98159072 28.8524612 -80.3125 30.75 C-81.44534424 31.08974854 -82.57818848 31.42949707 -83.74536133 31.77954102 C-87.10485434 32.78661713 -90.46455044 33.79300966 -93.82440186 34.79888916 C-95.66805399 35.35085096 -97.51167843 35.90290527 -99.35528564 36.45501709 C-107.69431735 38.95210208 -116.03428388 41.44604707 -124.375 43.9375 C-125.61359772 44.30753143 -126.85219543 44.67756287 -128.12832642 45.05880737 C-145.20602372 50.15793982 -162.29771297 55.20252252 -179.44140625 60.07568359 C-186.05193532 61.96244066 -192.60985038 63.93326148 -199.12109375 66.140625 C-205.6310724 68.34429216 -212.18015153 70.26579121 -218.8125 72.0625 C-226.25179582 74.08567869 -233.63429414 76.2408333 -240.98602295 78.56097412 C-246.20064269 80.20399113 -251.42938076 81.79453417 -256.66796875 83.359375 C-257.46465469 83.59740341 -258.26134064 83.83543182 -259.08216858 84.08067322 C-260.72843734 84.57214798 -262.37477527 85.06339107 -264.0211792 85.55441284 C-277.12118272 89.46220144 -290.20418382 93.41486687 -303.25 97.5 C-311.35662514 100.03692158 -319.46885483 102.47671314 -327.66821289 104.69458008 C-334.96195278 106.68408495 -342.16966266 108.93952841 -349.38891602 111.18188477 C-359.73625639 114.38682646 -370.11506457 117.48191343 -380.5 120.5625 C-381.76077866 120.93655975 -381.76077866 120.93655975 -383.04702759 121.31817627 C-387.82251667 122.73464828 -392.5985315 124.14933439 -397.375 125.5625 C-398.23375767 129.93469668 -398.44433394 133.9453602 -398.2890625 138.39453125 C-398.24523437 139.68810547 -398.20140625 140.98167969 -398.15625 142.31445312 C-398.13046875 142.98226807 -398.1046875 143.65008301 -398.078125 144.33813477 C-398.00062508 146.35870299 -397.93315037 148.37941637 -397.8671875 150.40039062 C-397.65160345 156.42776147 -397.34907697 162.37933905 -396.60253906 168.36352539 C-396.12105796 173.01663725 -396.07744151 177.70159632 -395.9375 182.375 C-395.60072741 192.22345772 -395.07366122 202.04553724 -394.375 211.875 C-394.29193604 213.06649658 -394.20887207 214.25799316 -394.12329102 215.4855957 C-393.74295821 221.28815734 -393.74295821 221.28815734 -392.87768555 227.02880859 C-392.29679763 229.95666425 -392.05611806 232.82400414 -391.83203125 235.80078125 C-391.73124268 237.06978271 -391.6304541 238.33878418 -391.52661133 239.64624023 C-391.44511337 240.67235916 -391.44511337 240.67235916 -391.36196899 241.71920776 C-387.24789212 292.5539995 -380.04540153 343.68427172 -369.375 393.5625 C-369.23360596 394.22479614 -369.09221191 394.88709229 -368.9465332 395.56945801 C-359.47513522 439.7979219 -347.05804026 483.13374836 -331.375 525.5625 C-331.01132324 526.55411133 -330.64764648 527.54572266 -330.27294922 528.56738281 C-326.43753543 538.99928354 -322.34520251 549.17216772 -317.50488281 559.18603516 C-316.10734007 562.12546495 -314.75292755 565.08345446 -313.3984375 568.04296875 C-307.11152315 581.76250856 -300.66568743 595.34057201 -293.375 608.5625 C-292.43333984 610.27566406 -292.43333984 610.27566406 -291.47265625 612.0234375 C-287.24598299 619.54745206 -282.77842871 626.92879988 -278.3125 634.3125 C-277.73467773 635.27124023 -277.15685547 636.22998047 -276.56152344 637.21777344 C-272.73080988 643.51248539 -268.64413362 649.55904954 -264.375 655.5625 C-263.22927336 657.21571989 -262.08604325 658.87067273 -260.9453125 660.52734375 C-254.73424734 669.50836441 -248.49289177 678.27299065 -241.375 686.5625 C-240.48180773 687.62654341 -239.58995369 688.69171116 -238.69921875 689.7578125 C-233.78784788 695.62277303 -228.79630204 701.39780465 -223.640625 707.05078125 C-222.39135154 708.43575166 -221.14879803 709.82726655 -219.93725586 711.24536133 C-215.17028218 716.80789231 -210.07584493 722.01484987 -204.88696289 727.1809082 C-203.43975615 728.62275221 -201.99797974 730.06987116 -200.55664062 731.51757812 C-195.33383453 736.74463663 -190.01960796 741.79261231 -184.375 746.5625 C-183.50621216 747.30584595 -183.50621216 747.30584595 -182.61987305 748.06420898 C-180.98039064 749.46505798 -179.33506833 750.85867559 -177.6875 752.25 C-177.14544922 752.70955078 -176.60339844 753.16910156 -176.04492188 753.64257812 C-174.49302907 754.95485419 -172.93416387 756.25887131 -171.375 757.5625 C-170.46105469 758.33207031 -169.54710937 759.10164062 -168.60546875 759.89453125 C-166.57224626 761.7621258 -166.57224626 761.7621258 -164.375 761.5625 C-164.375 762.2225 -164.375 762.8825 -164.375 763.5625 C-161.95365261 765.44440797 -159.52497859 767.2034984 -157 768.9375 C-156.23558594 769.46843262 -155.47117187 769.99936523 -154.68359375 770.54638672 C-152.25360432 772.22765796 -149.81550021 773.8965298 -147.375 775.5625 C-146.61670898 776.08263672 -145.85841797 776.60277344 -145.07714844 777.13867188 C-111.13859029 800.35589902 -74.01785641 818.63365941 -35.25 832.3125 C-34.57138916 832.56467285 -33.89277832 832.8168457 -33.19360352 833.07666016 C-23.40569596 836.37562462 -14.69478891 832.59127454 -5.4375 829.1875 C-4.21111816 828.74124268 -2.98473633 828.29498535 -1.72119141 827.83520508 C29.3918291 816.42073406 61.47854617 802.8184585 88.38671875 783.16015625 C90.84130266 781.40810595 93.37071034 779.83267002 95.9375 778.25 C102.5061265 774.11213641 108.54311114 769.37320558 114.625 764.5625 C115.47964844 763.8921875 116.33429687 763.221875 117.21484375 762.53125 C132.17128265 750.70184613 146.24412427 738.01676045 159.77593994 724.58679199 C160.78316232 723.58761139 161.79186031 722.58991559 162.80218506 721.59387207 C168.7802433 715.69138442 174.39912031 709.63186562 179.62060547 703.04052734 C181.6784777 700.49638567 183.84026661 698.08860488 186.0625 695.6875 C199.12410388 681.31066517 210.06101855 664.81927051 220.625 648.5625 C221.02154785 647.95245117 221.4180957 647.34240234 221.82666016 646.71386719 C232.38626121 630.36658467 242.08983467 613.38206994 250.52490234 595.84082031 C251.81155098 593.17614985 253.119236 590.52215724 254.42578125 587.8671875 C261.3857385 573.64490962 267.76030931 559.26880448 273.625 544.5625 C274.10469238 543.36318848 274.58438477 542.16387695 275.07861328 540.92822266 C308.96495388 455.96382699 327.08407072 365.52225859 339.8125 253.0625 C340.00261154 251.33454697 340.00261154 251.33454697 340.19656372 249.57168579 C343.08371592 223.21461302 345.1210988 196.90310622 346.53979492 170.4309082 C346.76843351 166.16839475 347.00620481 161.90644128 347.24615002 157.64455128 C347.43134412 154.33255643 347.61099374 151.02027829 347.78902626 147.70789146 C347.87443747 146.13412704 347.96176267 144.56046524 348.05107689 142.9869175 C348.17418901 140.80640407 348.28961568 138.62561408 348.40307617 136.44458008 C348.47032394 135.20823318 348.53757172 133.97188629 348.6068573 132.69807434 C348.65004831 129.01731823 348.65004831 129.01731823 347.625 125.5625 C345.07984819 124.40208632 342.76106299 123.56070767 340.09765625 122.76953125 C339.29868423 122.51831009 338.49971222 122.26708893 337.67652893 122.008255 C334.99827121 121.17347317 332.31275109 120.36615649 329.625 119.5625 C328.70612 119.28388123 327.78723999 119.00526245 326.84051514 118.71820068 C320.72010789 116.86276281 314.58864835 115.04654147 308.45214844 113.24511719 C303.73115285 111.85914931 299.01226422 110.46606901 294.29324341 109.07339478 C291.81244419 108.34127557 289.33154723 107.6094875 286.85055542 106.87802124 C274.78554248 103.31956294 262.73151015 99.72466626 250.6789856 96.12417603 C231.00149464 90.24595288 211.31728723 84.39095657 191.625 78.5625 C147.11895454 65.38725011 102.63663823 52.13405666 58.23291016 38.61752319 C41.59186245 33.55202369 24.93061335 28.5588311 8.25 23.625 C7.29916534 23.34342041 6.34833069 23.06184082 5.36868286 22.77172852 C-14.31795962 15.75333648 -14.31795962 15.75333648 -34.36328125 16.87109375 Z " fill="#F3F6F3" transform="translate(597.375,22.4375)"/>
</svg>
