<?xml version="1.0" encoding="UTF-8"?>
<svg version="1.1" xmlns="http://www.w3.org/2000/svg" width="389" height="323">
<path d="M0 0 C0.66837891 0.18191895 1.33675781 0.36383789 2.02539062 0.55126953 C20.58378085 5.72745065 37.34289568 15.65466661 52 28 C53.14275391 28.93972656 53.14275391 28.93972656 54.30859375 29.8984375 C80.11938463 51.81748002 94.52609239 85.20129616 97.6875 118.375 C97.80775904 120.24903667 97.9132538 122.12411333 98 124 C98.061875 125.15242188 98.061875 125.15242188 98.125 126.328125 C98.99314827 158.23257395 87.24429046 191.21082058 66 215 C65.2575 215.86238281 64.515 216.72476563 63.75 217.61328125 C41.68569413 242.8569923 9.27789226 259.2832538 -24.25390625 261.87109375 C-57.44426479 263.42910489 -89.42149937 255.65196766 -116 235 C-117.45986328 233.87078125 -117.45986328 233.87078125 -118.94921875 232.71875 C-147.31238207 210.12108645 -163.7438887 178.18907703 -168.46484375 142.484375 C-168.7299174 139.65208123 -168.90153991 136.84250006 -169 134 C-169.05994141 132.87078125 -169.05994141 132.87078125 -169.12109375 131.71875 C-170.07756759 98.86106049 -157.84983917 67.04624103 -137 42 C-136.25878906 41.10539062 -135.51757812 40.21078125 -134.75390625 39.2890625 C-102.45471284 1.86575463 -47.21553683 -13.33827956 0 0 Z M-72.875 94.6875 C-83.69658634 107.57127611 -86.37025337 121.6936345 -85 138 C-82.88238514 149.42497598 -76.18175689 160.79318705 -67 168 C-53.08814755 177.45848325 -39.07987706 180.44701486 -22.4921875 177.34375 C-9.15074584 173.30300005 1.85602049 164.84627168 8.64453125 152.70703125 C14.93956281 140.13510943 16.17756818 126.66274794 12.4375 113.0625 C7.74345042 100.03076794 -0.5071251 90.40856004 -12.796875 84.02734375 C-33.24267815 74.49321923 -56.92156751 78.06711799 -72.875 94.6875 Z " fill="#2563EB" transform="translate(225,29)"/>
<path d="M0 0 C0.94746094 -0.02835938 1.89492187 -0.05671875 2.87109375 -0.0859375 C5.5625 0.375 5.5625 0.375 7.89453125 1.8203125 C10.40272941 5.66190874 9.99445252 9.14616882 9.8125 13.625 C9.79445312 14.46546875 9.77640625 15.3059375 9.7578125 16.171875 C9.71080798 18.24007395 9.63906724 20.30768441 9.5625 22.375 C11.2125 22.705 12.8625 23.035 14.5625 23.375 C15.25 26.1875 15.25 26.1875 15.5625 29.375 C14.06291633 31.42485944 13.14138901 32.25853365 10.63305664 32.76318359 C9.56365845 32.76825928 9.56365845 32.76825928 8.47265625 32.7734375 C7.29606445 32.77923828 7.29606445 32.77923828 6.09570312 32.78515625 C5.28037109 32.77355469 4.46503906 32.76195312 3.625 32.75 C2.81353516 32.76160156 2.00207031 32.77320313 1.16601562 32.78515625 C-4.79598009 32.75581091 -4.79598009 32.75581091 -8.00390625 30.8515625 C-8.47699219 30.36429688 -8.95007813 29.87703125 -9.4375 29.375 C-8.6875 24.625 -8.6875 24.625 -6.4375 22.375 C-4.4575 22.375 -2.4775 22.375 -0.4375 22.375 C-0.4375 18.415 -0.4375 14.455 -0.4375 10.375 C-2.4175 10.375 -4.3975 10.375 -6.4375 10.375 C-8.375 9.1875 -8.375 9.1875 -9.4375 7.375 C-9.3125 4.8125 -9.3125 4.8125 -8.4375 2.375 C-5.13363642 0.17242428 -3.86932123 0.05250097 0 0 Z " fill="#316CEC" transform="translate(186.4375,150.625)"/>
<path d="M0 0 C1.9375 1.625 1.9375 1.625 3 4 C2.875 7.125 2.875 7.125 2 10 C-1 12 -1 12 -4.5625 11.8125 C-8 11 -8 11 -10 8 C-9.8125 4.9375 -9.8125 4.9375 -9 2 C-5.52957297 -0.31361802 -4.08165827 -0.51020728 0 0 Z " fill="#2F6AEC" transform="translate(193,133)"/>
</svg>
